<?xml version="1.0" standalone="no"?>
<!DOCTYPE svg PUBLIC "-//W3C//DTD SVG 20010904//EN"
 "http://www.w3.org/TR/2001/REC-SVG-20010904/DTD/svg10.dtd">
<svg version="1.0" xmlns="http://www.w3.org/2000/svg"
 width="680.000000pt" height="830.000000pt" viewBox="0 0 680.000000 830.000000"
 preserveAspectRatio="xMidYMid meet">

<g transform="translate(0.000000,830.000000) scale(0.100000,-0.100000)"
fill="#000000" stroke="none">
<path d="M2771 6741 c-47 -15 -86 -32 -88 -38 -2 -6 10 -14 28 -18 24 -5 37
-2 58 14 14 11 43 30 64 41 34 19 47 31 30 29 -5 -1 -46 -13 -92 -28z"/>
<path d="M3396 6577 c-4 -32 -11 -55 -16 -52 -5 3 -10 0 -12 -7 -6 -18 -168
-25 -168 -8 0 9 -30 11 -117 8 -99 -4 -134 -10 -213 -37 -52 -18 -140 -41
-195 -52 -95 -19 -102 -22 -147 -67 -27 -25 -48 -53 -48 -62 0 -13 -1 -13 -10
0 -7 10 -10 11 -10 2 0 -26 61 -132 110 -191 27 -33 50 -64 50 -70 0 -5 14 -5
38 1 20 5 43 10 50 10 6 1 12 9 12 19 0 30 18 31 29 2 10 -27 11 -27 5 6 -8
45 15 38 32 -10 l12 -34 1 34 c1 32 42 101 60 101 8 0 15 -21 104 -302 38
-122 57 -168 70 -171 11 -4 17 -15 17 -35 0 -29 21 -48 41 -36 26 16 -9 227
-75 454 -18 63 -31 118 -29 123 2 4 19 7 38 7 33 0 34 -1 45 -57 6 -32 22
-107 35 -168 13 -60 31 -155 40 -210 15 -82 22 -104 46 -127 33 -34 45 -35 60
-6 14 26 8 115 -21 344 -12 86 -19 159 -16 162 3 2 27 -6 53 -19 60 -30 60
-31 69 -290 6 -183 8 -198 28 -224 28 -35 51 -29 70 17 8 19 18 116 25 233 6
110 14 209 17 220 7 24 42 52 78 61 24 6 26 3 26 -22 0 -16 -4 -56 -10 -89
-41 -264 -43 -397 -4 -412 37 -14 53 28 113 303 33 148 63 277 66 287 7 17 66
34 83 23 6 -3 -9 -66 -34 -148 -52 -166 -104 -371 -104 -408 0 -15 6 -34 13
-44 12 -16 14 -15 36 8 13 14 25 36 26 49 5 41 74 230 95 259 11 15 20 38 20
51 0 26 54 166 71 182 14 14 69 -48 69 -78 0 -16 3 -18 9 -8 13 20 30 5 24
-22 -4 -21 -3 -21 11 3 l15 25 1 -35 c0 -26 3 -31 10 -20 8 12 13 13 27 2 31
-21 42 -24 61 -16 9 4 20 6 25 6 4 -1 7 2 7 7 0 5 8 11 18 13 21 6 142 181
142 206 0 14 -2 13 -13 -2 -12 -17 -16 -13 -41 37 -28 54 -81 116 -101 116
-13 1 -111 30 -150 44 -16 7 -32 12 -35 13 -20 3 -67 28 -94 49 -18 14 -40 25
-50 25 -9 0 -26 6 -37 13 -17 10 -23 10 -26 0 -3 -7 -18 -13 -34 -13 -16 0
-29 -4 -29 -9 0 -5 -18 -11 -40 -15 -22 -3 -40 -11 -40 -17 0 -7 -32 -10 -97
-8 -54 2 -103 0 -109 -4 -17 -10 -34 15 -54 79 l-17 57 -7 -56z"/>
<path d="M2538 6409 c-10 -5 -23 -20 -29 -32 -10 -18 -6 -17 20 7 39 37 42 45
9 25z"/>
<path d="M4145 5738 c-10 -40 -21 -80 -24 -88 -3 -11 0 -10 14 3 13 14 27 17
50 13 22 -5 36 -2 45 9 8 9 29 15 56 15 23 0 46 5 49 10 3 6 0 10 -8 10 -18 0
-57 42 -57 62 0 17 -47 38 -85 38 -18 0 -24 -11 -40 -72z"/>
<path d="M2620 5792 c-57 -4 -80 -12 -80 -26 0 -25 -36 -46 -83 -47 -26 -1
-47 -6 -47 -11 0 -4 -12 -8 -26 -8 -22 0 -25 -2 -14 -15 10 -11 36 -15 110
-15 63 0 100 -4 102 -11 2 -6 24 -13 50 -16 33 -4 49 -11 57 -27 10 -18 11
-19 5 -1 -3 11 -10 45 -15 75 -17 100 -20 105 -59 102z"/>
<path d="M4435 5721 c-29 -15 -29 -16 -6 -19 24 -4 46 10 40 25 -2 5 -17 2
-34 -6z"/>
<path d="M3708 5464 c-15 -20 -33 -65 -43 -107 -22 -91 -25 -95 -41 -66 -12
21 -13 17 -8 -36 5 -50 2 -70 -16 -113 -16 -38 -27 -51 -38 -47 -11 4 -13 0
-9 -16 12 -46 4 -49 -149 -49 -136 0 -144 1 -144 19 0 30 19 75 37 89 9 6 12
12 6 12 -6 0 -23 -14 -37 -31 -30 -35 -40 -32 -77 28 -17 28 -21 45 -17 93 4
52 3 57 -10 39 -18 -26 -29 -17 -37 34 -10 64 -33 129 -56 157 l-21 25 7 -85
c3 -47 12 -125 21 -174 8 -48 12 -91 9 -95 -12 -11 -31 27 -44 84 -7 31 -15
55 -17 52 -2 -2 3 -37 11 -77 8 -40 14 -75 12 -77 -9 -8 -35 10 -31 21 3 7 0
23 -5 37 -10 24 -10 24 -10 1 -1 -22 -2 -22 -38 -7 l-38 15 25 -21 c23 -19 21
-19 -18 2 -24 13 -65 46 -90 74 -40 42 -53 50 -87 52 -22 1 -53 4 -69 7 -25 5
-36 -1 -85 -51 -31 -32 -68 -78 -84 -103 -59 -97 -87 -128 -119 -135 -17 -4
-43 -20 -57 -35 -14 -15 -54 -42 -87 -59 -59 -30 -130 -88 -150 -121 -5 -9
-46 -32 -92 -53 -148 -66 -156 -73 -328 -317 -203 -288 -212 -305 -258 -558
-21 -108 -46 -234 -57 -280 -10 -45 -19 -92 -19 -104 0 -11 -11 -44 -25 -72
-50 -103 -94 -478 -65 -560 6 -17 17 -76 26 -130 28 -187 125 -533 202 -721
71 -172 99 -226 185 -354 52 -77 74 -118 67 -125 -19 -24 -29 -100 -19 -147
10 -45 9 -49 -25 -94 -65 -85 -89 -204 -84 -425 3 -150 5 -169 26 -203 12 -21
22 -55 22 -75 0 -63 108 -242 172 -284 22 -15 23 -19 20 -157 l-3 -141 1430 0
1430 0 3 102 3 102 55 38 c136 95 164 140 162 265 -1 66 2 82 15 87 23 9 10
145 -16 166 -26 21 -36 147 -16 199 31 78 35 210 9 253 -4 6 -12 43 -19 82
l-12 71 46 58 c25 32 77 98 115 145 67 85 116 171 116 204 0 9 21 40 46 70 93
108 155 221 204 373 60 188 113 511 91 553 -8 16 -6 30 8 64 64 145 49 474
-32 688 -23 61 -28 95 -53 369 -6 62 -60 219 -107 306 -33 62 -170 251 -207
285 -9 8 -23 31 -30 50 -23 60 -55 93 -136 141 -75 44 -337 175 -509 253 -88
41 -142 87 -182 156 -15 25 -31 48 -36 51 -5 4 -50 7 -99 8 -50 1 -99 6 -109
11 -10 6 -29 10 -43 10 -31 0 -32 4 -7 39 12 17 18 36 14 50 -5 21 -7 20 -44
-16 -40 -40 -127 -96 -166 -108 -20 -5 -23 -3 -24 22 -1 27 -1 27 -8 4 -4 -14
-12 -26 -19 -29 -14 -4 -14 7 10 228 6 58 9 115 7 126 -4 20 -6 19 -31 -12z
m232 -344 c0 -9 -62 -54 -79 -57 -7 -1 1 13 18 31 28 29 61 43 61 26z m-994
-71 c7 -15 10 -29 7 -33 -4 -3 -1 -6 6 -6 7 0 9 -5 6 -10 -9 -15 -85 84 -85
111 0 17 49 -30 66 -62z m1199 -39 c3 -5 -1 -10 -10 -10 -9 0 -13 5 -10 10 3
6 8 10 10 10 2 0 7 -4 10 -10z m-1108 -142 c14 -18 23 -58 13 -58 -10 0 -50
49 -50 61 0 13 26 11 37 -3z m-1297 -496 c0 -22 -33 -55 -44 -45 -13 13 -26
-21 -26 -68 0 -33 -8 -58 -29 -91 -44 -70 -91 -90 -91 -39 0 30 19 54 41 49
12 -3 18 10 38 87 21 80 111 167 111 107z m3442 -9 c8 -10 32 -47 53 -83 22
-36 49 -75 62 -88 24 -24 40 -68 28 -80 -4 -4 -18 7 -32 23 l-25 30 7 -31 c6
-33 -13 -64 -40 -64 -29 0 -84 62 -105 116 -22 59 -26 143 -10 175 13 24 42
25 62 2z m-3308 -40 c11 -28 -43 -59 -59 -33 -11 17 -35 11 -35 -9 0 -11 7
-32 16 -48 38 -65 -24 -173 -99 -173 -41 0 -67 21 -67 54 0 24 40 68 47 51 10
-27 22 -37 38 -31 13 5 16 13 11 39 -4 17 -9 46 -12 63 -9 50 34 116 81 126
26 6 71 -16 79 -39z m2443 -50 c7 -17 30 -17 36 0 3 6 6 -7 6 -30 1 -55 15
-56 19 -1 1 23 4 44 6 45 2 2 14 -1 27 -6 17 -7 19 -10 7 -10 -10 -1 -18 -5
-18 -10 0 -5 8 -12 18 -14 13 -4 11 -5 -5 -6 -28 -1 -31 -21 -3 -21 18 0 20
-7 20 -55 0 -45 -3 -55 -17 -56 -12 0 -13 -2 -5 -6 10 -4 9 -8 -5 -19 -17 -13
-17 -13 0 -14 24 0 22 -20 -3 -20 -18 0 -20 7 -20 70 0 39 -4 70 -9 70 -12 0
-22 -45 -15 -65 5 -12 2 -16 -12 -13 -14 2 -20 -4 -22 -21 -3 -20 0 -23 17
-18 24 6 29 -8 6 -17 -16 -6 -45 18 -45 39 0 8 9 20 21 28 14 11 20 24 18 44
-2 15 0 34 5 41 10 16 -8 37 -23 28 -6 -4 -11 -28 -12 -54 0 -26 -3 -41 -6
-34 -5 14 -33 17 -33 3 0 -5 6 -26 14 -48 l14 -39 -34 0 c-39 0 -39 -2 -18 38
13 24 14 47 9 110 l-7 78 32 -2 c18 -1 35 -8 37 -15z m213 -15 c56 -38 74 -71
78 -143 l4 -65 -86 0 -86 0 1 93 c2 121 6 137 34 137 12 0 37 -10 55 -22z
m550 7 c0 -9 10 -30 23 -47 21 -30 21 -31 3 -42 -35 -21 -116 -103 -116 -118
0 -21 -40 -69 -51 -63 -24 16 -6 55 56 118 36 37 65 73 65 80 0 6 -18 -8 -40
-32 -22 -25 -43 -42 -46 -38 -10 10 25 94 53 127 27 32 53 39 53 15z m-3085
-37 c29 -73 30 -75 14 -60 -36 34 -109 -11 -109 -68 0 -60 74 -92 128 -54 13
9 25 14 28 11 3 -2 7 -27 11 -55 4 -41 2 -55 -14 -75 -18 -23 -21 -24 -51 -11
-18 7 -35 20 -38 29 -4 10 -19 15 -46 15 -32 0 -47 7 -74 34 -30 30 -34 40
-34 84 0 82 27 131 95 173 49 31 70 25 90 -23z m2253 -43 c5 -24 -18 -65 -37
-65 -13 -1 -12 -3 3 -15 17 -13 18 -15 3 -15 -9 0 -17 -7 -17 -16 0 -8 -4 -12
-10 -9 -5 3 -10 19 -10 36 0 16 5 29 10 29 6 0 10 7 10 15 0 9 6 12 15 9 21
-8 30 22 14 43 -12 14 -12 16 1 11 8 -2 17 -13 18 -23z m892 -75 c0 -34 -26
-85 -55 -108 -28 -22 -115 -32 -115 -13 0 5 22 29 49 53 27 24 52 53 56 66 9
30 65 32 65 2z m-210 -33 c0 -7 -13 -25 -30 -40 -35 -33 -39 -19 -9 29 20 32
39 37 39 11z m-40 -143 c0 -19 -16 -18 -24 2 -11 27 -7 37 9 24 8 -7 15 -19
15 -26z m360 -30 c0 -4 -9 -23 -21 -43 l-21 -36 26 28 c14 15 29 27 34 27 11
0 42 -89 42 -117 -1 -29 -34 -66 -56 -61 -14 3 -18 11 -17 32 3 36 -11 23 -26
-24 -16 -50 -45 -84 -65 -77 -13 5 -14 11 -6 32 6 15 10 40 10 58 0 39 68 187
87 187 7 0 13 -3 13 -6z m-2346 -55 c46 -54 60 -90 46 -113 -10 -16 -9 -22 8
-35 52 -40 51 -129 -2 -185 -37 -40 -76 -52 -198 -61 -101 -8 -96 -14 -79 99
6 33 15 96 21 139 16 110 37 175 58 180 9 3 40 5 69 6 46 1 54 -2 77 -30z
m1124 -156 c30 -198 33 -185 -30 -181 -38 2 -53 7 -55 18 -10 82 -14 90 -39
90 -25 0 -25 1 33 110 32 60 60 110 63 110 3 0 15 -66 28 -147z m-863 117 c3
-5 1 -10 -4 -10 -6 0 -11 5 -11 10 0 6 2 10 4 10 3 0 8 -4 11 -10z m2254 -59
c16 -66 8 -90 -24 -77 -12 4 -14 12 -9 28 l6 23 -25 -24 c-15 -14 -33 -21 -41
-18 -17 7 -22 33 -8 39 4 2 20 25 36 51 15 27 33 46 39 44 7 -2 18 -32 26 -66z
m-1030 35 c22 -23 23 -31 17 -98 -4 -40 -13 -100 -19 -133 l-13 -60 -47 -3
c-56 -4 -55 -6 -31 129 18 97 12 119 -31 119 -36 0 -54 -31 -73 -131 l-17 -94
-54 -3 c-41 -2 -52 0 -49 10 3 7 20 74 37 148 l32 135 113 3 c108 2 113 2 135
-22z m-2781 -18 c7 -13 18 -42 26 -65 14 -40 14 -43 -2 -43 -37 0 -63 13 -58
27 10 26 -6 36 -18 11 -8 -15 -22 -24 -42 -26 -29 -3 -30 -1 -26 27 5 34 62
91 91 91 10 0 23 -10 29 -22z m272 4 c18 -15 21 -23 15 -56 l-8 -38 -34 35
c-27 26 -34 40 -28 56 8 26 26 27 55 3z m1610 -1 c0 -5 -9 -11 -20 -14 -12 -3
-20 -14 -20 -25 0 -31 -11 -52 -26 -52 -8 0 -14 7 -14 17 0 15 -1 15 -18 0
-10 -10 -28 -17 -40 -17 -17 0 -22 -6 -22 -25 0 -18 -5 -25 -20 -25 -18 0 -19
5 -14 63 3 34 7 68 10 75 5 16 76 16 92 0 10 -10 15 -10 20 -1 13 20 72 23 72
4z m85 -3 l15 -23 6 23 c6 21 11 22 66 19 67 -4 82 -17 70 -62 -11 -40 -34
-46 -26 -7 8 38 -13 53 -22 15 -10 -48 -13 -53 -30 -53 -14 0 -15 7 -10 40 4
24 2 40 -4 40 -5 0 -13 -18 -16 -40 -7 -41 -20 -50 -42 -28 -9 9 -15 9 -24 0
-32 -32 -91 16 -69 57 23 43 63 51 86 19z m947 6 c3 -2 12 -36 19 -74 7 -39
16 -73 20 -76 4 -2 13 22 20 53 15 71 16 71 34 47 18 -24 19 -64 1 -64 -9 0
-17 -25 -26 -82 -14 -92 -22 -112 -88 -211 l-46 -69 -46 7 c-25 4 -47 9 -49
11 -2 2 29 48 68 102 39 55 71 106 71 115 0 9 -17 68 -39 131 -21 63 -36 118
-33 121 6 6 80 -3 94 -11z m-1962 -2 c0 -4 -4 -12 -9 -17 -5 -6 -22 -35 -38
-65 -17 -30 -56 -95 -87 -145 -32 -49 -82 -138 -112 -197 -54 -107 -54 -108
-90 -108 -36 0 -36 1 -30 31 3 18 26 74 50 125 l45 94 -19 53 c-30 86 -57 191
-53 205 3 7 23 12 49 12 51 0 57 -9 69 -103 4 -31 11 -57 16 -57 4 0 32 36 60
81 29 44 62 85 73 89 27 11 76 12 76 2z m670 -38 c0 -47 17 -43 25 6 9 54 35
55 35 2 0 -45 -26 -75 -62 -70 -19 2 -24 10 -26 42 -2 21 -1 45 2 53 10 24 26
4 26 -33z m1441 23 c-1 -12 -15 -9 -19 4 -3 6 1 10 8 8 6 -3 11 -8 11 -12z
m-2477 -15 c2 -4 1 -23 -3 -42 -6 -32 -10 -35 -49 -41 -41 -5 -42 -5 -42 25 0
16 7 38 17 48 16 18 68 25 77 10z m986 -30 c0 -15 -2 -15 -10 -2 -13 20 -13
33 0 25 6 -3 10 -14 10 -23z m-1360 10 c0 -4 27 -38 60 -75 33 -38 60 -73 60
-80 -1 -30 -18 -40 -61 -33 l-44 6 -2 51 -1 51 21 -20 c49 -43 48 -31 0 19
-49 50 -67 89 -43 89 6 0 10 -4 10 -8z m761 -162 c43 -24 3 -120 -50 -120 -19
0 -51 24 -51 39 0 26 24 70 43 79 29 14 35 14 58 2z m2175 -90 c-16 -68 -20
-75 -34 -66 -6 3 1 33 17 70 14 35 27 63 29 62 1 -2 -4 -31 -12 -66z m-3198
17 c29 -27 28 -63 -2 -108 -19 -28 -34 -38 -63 -42 -72 -12 -76 -11 -69 28 6
28 3 37 -14 47 -11 7 -20 16 -20 20 0 13 28 9 33 -4 3 -9 10 -8 26 6 11 11 21
23 21 27 0 4 5 20 10 34 8 21 14 25 33 20 12 -4 32 -17 45 -28z m-112 -1 c-12
-18 -12 -26 -3 -29 7 -3 5 -6 -5 -6 -9 -1 -20 4 -23 9 -4 6 -11 8 -16 5 -5 -4
-9 1 -9 10 0 10 6 15 13 12 7 -3 21 1 32 9 27 20 30 17 11 -10z m1644 -176 c0
-34 -16 -42 -69 -35 -58 8 -58 9 7 99 l36 49 13 -49 c7 -27 13 -56 13 -64z
m-1417 78 c51 -27 60 -74 27 -145 -21 -48 -23 -49 -73 -28 -35 14 -36 15 -22
42 19 37 19 60 -2 71 -14 8 -15 14 -3 41 13 33 36 39 73 19z m-272 -35 c13
-16 12 -17 -3 -4 -10 7 -18 15 -18 17 0 8 8 3 21 -13z m3939 -47 c0 -7 -3 -28
-6 -45 -6 -27 -11 -31 -40 -31 -39 0 -61 -26 -71 -84 -5 -31 -12 -41 -39 -52
-56 -24 -57 -23 -49 79 3 50 9 99 11 108 5 19 68 31 83 16 6 -6 18 -3 32 7 29
20 79 21 79 2z m83 -15 c4 -4 14 -44 21 -87 l13 -79 18 63 c21 72 39 76 43 10
5 -78 -27 -143 -115 -230 -73 -73 -80 -77 -108 -69 l-30 8 27 11 c15 6 45 34
68 63 l41 52 -7 96 c-4 53 -13 108 -20 123 -23 45 -19 61 14 53 15 -3 31 -10
35 -14z m-327 -93 c-10 -133 -10 -132 -67 -151 -47 -15 -50 -15 -43 1 4 9 9
38 12 64 3 42 1 48 -23 64 -26 17 -29 17 -63 -2 -44 -24 -68 -82 -52 -128 5
-16 8 -31 5 -34 -7 -7 -81 -6 -94 2 -33 21 -1 81 104 195 56 60 61 63 97 58
21 -3 38 -1 38 3 0 9 28 16 69 19 l24 1 -7 -92z m-2558 5 c44 -65 72 -117 72
-133 0 -18 -53 -33 -72 -21 -27 16 -28 15 -28 -34 0 -84 -72 -186 -93 -131
-11 27 13 360 26 368 32 20 57 8 95 -49z m264 42 c3 -3 1 -26 -3 -53 -4 -26
-13 -126 -20 -222 -6 -96 -15 -179 -19 -183 -5 -5 -27 15 -49 43 -34 43 -41
58 -36 84 2 17 9 81 15 141 20 207 16 195 64 195 24 0 45 -2 48 -5z m-1172
-57 c25 -24 61 -51 79 -61 31 -16 33 -20 26 -54 -4 -21 -11 -46 -17 -56 -14
-26 -93 -57 -141 -56 -30 2 -34 3 -14 6 23 4 27 9 27 35 0 23 9 39 32 58 l31
26 -19 32 c-10 18 -36 40 -56 49 -40 18 -42 21 -32 47 10 26 34 18 84 -26z
m168 1 c37 -14 28 -39 -16 -39 -41 0 -62 14 -62 42 0 19 20 18 78 -3z m2237
-61 c31 -14 32 -28 1 -57 -21 -20 -27 -21 -45 -9 -16 10 -25 10 -39 2 -28 -18
-20 -43 23 -67 69 -39 72 -102 7 -167 -28 -28 -48 -39 -85 -44 -27 -4 -51 -5
-54 -2 -12 12 16 61 43 76 41 23 38 51 -8 72 -62 29 -73 81 -31 144 37 57 124
81 188 52z m-2502 -5 c-7 -2 -19 -2 -25 0 -7 3 -2 5 12 5 14 0 19 -2 13 -5z
m2226 -19 c21 -27 28 -92 15 -142 -6 -21 -12 -23 -58 -20 -48 3 -51 5 -48 28
1 13 10 28 18 33 12 7 14 19 9 57 -4 27 -4 54 0 60 11 18 43 11 64 -16z m521
11 c35 -18 38 -35 10 -60 -17 -15 -24 -16 -47 -6 -22 10 -29 9 -42 -4 -15 -15
-12 -19 28 -54 43 -37 44 -39 39 -85 -4 -31 -14 -56 -28 -70 l-22 -21 7 35 c3
19 8 44 11 55 2 11 -3 7 -11 -10 -8 -16 -14 -42 -15 -56 0 -35 -30 -60 -79
-66 -31 -4 -42 -2 -47 10 -7 20 19 73 35 69 21 -4 51 18 51 38 0 10 -15 28
-34 39 -52 33 -61 79 -26 136 36 58 111 80 170 50z m-2288 -22 c27 -25 38 -63
19 -63 -20 0 -71 58 -65 74 8 22 13 20 46 -11z m2528 -10 c14 -10 34 -16 44
-14 17 2 18 -2 13 -46 l-6 -48 14 33 c11 26 20 32 44 32 39 0 42 -7 24 -53
-14 -34 -19 -38 -42 -32 -14 4 -29 7 -34 8 -5 1 -23 -47 -40 -108 -32 -110
-32 -110 -62 -108 -16 1 -31 7 -33 12 -2 5 -20 5 -45 -1 -31 -7 -44 -6 -52 4
-5 7 -17 13 -25 13 -24 0 -41 46 -35 93 14 101 59 178 123 212 46 24 80 25
112 3z m-1460 -18 c52 -27 70 -61 70 -131 l0 -64 -110 7 c-120 7 -122 6 -100
-51 13 -36 54 -44 90 -17 21 15 37 19 60 14 41 -8 48 -28 21 -57 -49 -52 -201
-52 -201 0 0 17 -17 18 -23 2 -2 -8 -13 2 -25 22 -43 69 -23 188 40 247 46 43
124 56 178 28z m-1487 -1 c3 -3 3 -12 0 -20 -6 -17 -43 -19 -43 -1 0 8 -4 7
-10 -3 -5 -8 -10 -11 -10 -6 0 5 -8 2 -19 -8 -10 -9 -25 -14 -33 -11 -9 4 -18
-1 -22 -12 -6 -15 -9 -15 -17 -3 -9 13 -10 12 -5 -2 8 -26 -51 -83 -70 -67
-16 13 -19 33 -4 24 6 -3 13 0 16 9 3 9 12 12 21 9 9 -4 14 -2 10 3 -18 30 60
72 174 93 3 1 8 -2 12 -5z m364 -51 l22 -15 -24 -48 c-14 -27 -29 -51 -33 -54
-13 -8 -82 13 -82 25 0 5 9 28 21 51 20 40 20 43 4 70 l-17 29 44 -22 c23 -12
53 -28 65 -36z m3589 6 c11 -18 -27 -89 -48 -89 -21 0 -19 19 9 73 14 29 27
34 39 16z m-1777 -136 c3 -2 -9 -18 -27 -35 -17 -18 -33 -30 -36 -27 -2 2 -7
21 -11 42 l-7 38 38 -7 c22 -3 41 -8 43 -11z m75 1 c19 -7 20 -24 4 -59 -14
-30 -29 -32 -53 -5 -18 20 -18 21 5 45 27 28 23 27 44 19z m266 -17 c0 -22
-24 -67 -36 -67 -6 0 -17 7 -24 15 -11 13 -9 20 10 40 25 27 50 33 50 12z
m945 -7 c-3 -5 -22 -10 -41 -10 -19 0 -34 5 -34 10 0 6 18 10 41 10 24 0 38
-4 34 -10z m-2990 -23 c10 -8 15 -19 11 -25 -8 -14 -86 -16 -86 -3 0 40 39 54
75 28z m-141 -59 c14 -29 33 -75 42 -103 8 -27 19 -63 24 -78 8 -24 6 -29 -16
-37 -71 -27 -67 -31 -102 83 -37 120 -51 138 -90 116 -36 -20 -41 -79 -13
-162 30 -88 28 -101 -18 -119 -44 -17 -51 -15 -51 17 0 12 -11 54 -25 94 -13
41 -27 95 -31 121 l-6 48 40 21 c22 11 42 17 46 14 3 -3 14 1 23 10 16 14 35
18 129 25 17 2 28 -10 48 -50z m3210 35 c4 -5 31 -13 59 -18 46 -9 53 -14 65
-47 17 -43 10 -96 -16 -128 l-17 -21 -95 40 c-83 35 -97 38 -109 26 -11 -11
-13 -21 -5 -42 9 -27 13 -28 71 -28 46 0 67 -5 80 -17 21 -21 14 -29 -47 -52
-48 -19 -92 -16 -145 11 -90 45 -87 143 9 240 17 17 42 33 56 36 42 7 86 7 94
0z m-3778 -41 c-9 -8 -26 10 -26 26 1 15 2 15 15 -2 8 -11 13 -21 11 -24z
m3526 -74 c-46 -91 -48 -93 -86 -96 -21 -2 -43 1 -48 6 -10 10 45 134 68 153
8 6 29 15 47 19 70 17 70 17 19 -82z m-2757 71 c49 -14 105 -68 105 -102 0
-43 -30 -69 -87 -74 -55 -6 -123 11 -123 30 1 30 21 42 67 42 41 0 48 3 48 20
0 13 -10 22 -30 28 -67 20 -119 43 -123 55 -5 16 87 16 143 1z m-532 -84 c4
-24 15 -70 26 -102 10 -32 22 -81 26 -109 6 -48 5 -51 -22 -64 -15 -7 -31 -13
-35 -12 -4 1 -14 -14 -22 -33 -18 -41 -58 -64 -80 -46 -7 6 -20 25 -26 42 -8
19 -16 26 -20 19 -8 -13 -44 54 -55 103 -10 37 9 34 29 -5 l17 -33 -6 66 c-9
94 13 144 67 153 7 1 28 16 47 34 18 18 37 32 41 32 4 0 10 -20 13 -45z m3844
-10 c10 -14 26 -35 36 -47 20 -25 21 -44 4 -78 -7 -14 -23 -52 -36 -85 -30
-77 -54 -125 -63 -125 -3 0 -15 11 -26 25 -11 14 -29 25 -40 25 -31 0 -69 36
-87 84 -15 40 -15 46 0 81 50 121 165 185 212 120z m-1149 -106 c66 -23 83
-116 36 -196 -24 -41 -24 -46 -10 -62 32 -36 11 -128 -42 -184 -46 -48 -98
-69 -177 -71 -57 -1 -70 2 -68 14 0 8 15 74 31 145 16 72 37 173 46 225 27
155 17 140 90 140 35 0 77 -5 94 -11z m1183 -131 c-18 -92 -41 -160 -54 -155
-7 2 -11 13 -10 23 3 28 66 205 71 199 3 -2 -1 -33 -7 -67z m-3163 -37 c23
-40 29 -95 12 -106 -21 -13 -108 -17 -128 -6 -21 11 -21 14 -7 40 8 16 17 47
21 70 6 39 8 41 43 41 33 0 40 -5 59 -39z m317 -1 c17 -19 17 -21 0 -40 -10
-11 -22 -20 -27 -20 -16 0 -48 40 -48 60 0 15 7 20 28 20 16 0 37 -9 47 -20z
m1010 -57 c12 -125 12 -125 85 -23 l64 90 53 0 c29 0 53 -4 53 -9 0 -5 -66
-94 -146 -198 -81 -103 -158 -209 -173 -235 -14 -26 -29 -48 -33 -48 -15 0 6
109 33 168 22 48 26 68 19 90 -18 56 -21 171 -6 207 25 60 43 45 51 -42z
m-779 34 l27 -24 -31 -21 c-19 -14 -33 -18 -37 -12 -10 16 -55 12 -62 -7 -5
-11 7 -28 40 -56 41 -34 47 -44 47 -79 0 -100 -94 -162 -164 -107 -37 29 -50
57 -36 74 10 13 16 12 37 -5 32 -25 49 -25 63 0 11 21 -1 60 -19 60 -4 0 -20
11 -35 25 -40 37 -37 96 8 141 30 30 40 34 84 34 39 0 57 -6 78 -23z m1562 -9
c5 -26 -16 -94 -38 -120 l-19 -23 -1 83 0 83 27 -3 c16 -2 29 -10 31 -20z
m-1288 -26 c14 -9 28 -15 33 -14 11 3 8 -37 -5 -61 -9 -14 -13 -64 -13 -142 0
-107 -2 -120 -18 -123 -10 -2 -26 0 -35 4 -9 4 -44 6 -77 5 -49 -2 -65 2 -88
19 -58 46 -74 136 -38 216 20 44 90 110 125 117 33 7 89 -3 116 -21z m-551
-54 c16 -11 41 -96 41 -140 0 -17 -19 -7 -26 14 -4 13 -24 46 -45 75 -40 54
-48 90 -26 112 10 10 14 6 24 -18 7 -16 21 -36 32 -43z m2417 51 c106 -32 138
-84 94 -156 -26 -43 -58 -60 -77 -41 -15 16 -18 42 -8 74 5 15 0 28 -16 43
l-23 21 -23 -25 -24 -25 -40 21 c-44 22 -45 31 -6 79 27 35 36 36 123 9z
m-521 -55 c-22 -17 -46 -15 -53 4 -2 8 8 12 35 12 36 -1 37 -1 18 -16z m-2035
-14 c27 -27 25 -49 -4 -60 -13 -5 -28 -16 -34 -25 -6 -13 -33 -19 -112 -25
-57 -5 -105 -8 -107 -6 -2 1 4 17 13 34 13 27 21 32 53 32 20 0 41 -4 47 -10
13 -13 87 37 80 55 -11 31 35 34 64 5z m70 -15 c7 -9 10 -18 7 -21 -10 -11
-37 5 -37 21 0 19 14 19 30 0z m2055 -6 c4 -6 5 -13 2 -16 -8 -7 -47 7 -47 18
0 13 37 11 45 -2z m264 -23 c31 -16 59 -46 43 -46 -5 0 -29 7 -52 15 -53 19
-59 19 -34 1 16 -12 17 -18 7 -35 -11 -18 -9 -21 23 -31 20 -7 54 -10 75 -7
33 4 44 1 71 -25 29 -27 31 -31 14 -40 -23 -13 -99 5 -137 33 -15 11 -57 33
-93 50 -55 26 -64 34 -56 47 24 42 27 44 48 33 16 -8 21 -7 26 4 7 19 29 19
65 1z m-942 -64 c23 -15 20 -65 -7 -92 -22 -22 -69 -27 -88 -8 -32 32 8 108
56 108 15 0 32 -4 39 -8z m470 -10 c8 -5 -1 -27 -28 -72 -21 -36 -39 -70 -39
-76 0 -6 -15 -28 -33 -50 -18 -21 -57 -78 -85 -125 -61 -101 -73 -113 -107
-105 -30 8 -32 25 -6 57 10 14 26 40 34 59 8 19 31 51 49 70 19 19 40 46 47
59 18 33 141 191 149 191 4 0 12 -4 19 -8z m-2107 -22 c0 -16 -81 -53 -92 -42
-15 15 -1 30 35 41 43 12 57 13 57 1z m2830 -30 c0 -5 -4 -10 -10 -10 -5 0
-10 5 -10 10 0 6 5 10 10 10 6 0 10 -4 10 -10z m-3181 -22 c-13 -23 -8 -157
12 -321 10 -80 9 -90 -9 -119 -19 -29 -20 -30 -30 -11 -12 21 -40 158 -44 213
-3 32 -9 38 -63 67 -33 17 -61 36 -63 41 -5 15 51 47 82 47 24 0 31 5 38 30 5
21 20 38 45 53 47 27 46 27 32 0z m-159 -62 c0 -8 -14 -25 -31 -37 -28 -20
-32 -20 -47 -6 -14 15 -13 18 9 36 28 24 69 28 69 7z m964 -99 c84 -130 186
-299 186 -309 0 -10 -12 -10 -34 -2 -9 3 -16 15 -16 25 0 21 -81 189 -91 189
-4 0 -1 -24 7 -52 19 -71 18 -152 -1 -168 -17 -14 -45 -7 -45 12 0 8 -40 54
-90 103 -49 49 -90 87 -90 84 0 -3 18 -59 40 -124 22 -65 40 -126 40 -135 0
-8 -19 -27 -43 -42 -37 -24 -42 -25 -45 -10 -2 9 -35 118 -74 241 -66 211 -69
226 -52 238 10 7 26 13 36 13 20 0 205 -164 232 -205 24 -37 38 -32 30 13 -7
39 -46 174 -59 205 -4 9 -3 17 1 16 5 0 36 -42 68 -92z m2564 66 c-2 -10 -22
-23 -48 -32 -31 -11 -44 -21 -42 -32 2 -11 -30 -25 -140 -57 -79 -23 -150 -42
-158 -42 -17 0 -74 67 -62 73 4 2 58 17 120 32 93 23 112 30 112 46 0 24 2 24
52 -1 28 -13 45 -17 53 -10 14 12 84 38 103 39 8 1 12 -7 10 -16z m-857 -70
c16 -10 29 -25 29 -35 0 -13 8 -18 25 -18 67 0 124 -66 103 -120 -5 -14 -24
-40 -41 -58 -38 -40 -171 -142 -183 -142 -13 1 -64 47 -64 58 0 6 41 43 90 83
100 80 113 107 61 129 -41 17 -59 9 -158 -75 -48 -41 -91 -75 -95 -75 -4 0
-20 11 -35 25 l-28 25 45 37 c24 21 81 71 124 111 44 39 84 72 89 72 5 0 22
-8 38 -17z m-1385 -175 c-8 -81 -14 -108 -24 -108 -15 1 -84 120 -76 132 19
35 39 48 72 48 l35 0 -7 -72z m1638 -29 l35 -31 -39 -79 c-22 -43 -40 -83 -40
-88 0 -5 35 2 78 16 42 14 84 27 93 30 23 6 68 -56 49 -67 -7 -4 -70 -27 -139
-49 -69 -23 -151 -50 -183 -60 l-56 -19 -25 27 c-40 41 -37 52 17 70 l50 17
54 132 c30 73 58 132 63 132 4 0 24 -14 43 -31z m-2424 -215 c5 -82 12 -164
16 -181 6 -33 6 -33 -33 -33 -50 0 -106 36 -155 100 -38 48 -48 80 -27 80 6 0
34 -20 62 -45 58 -51 72 -55 63 -21 -3 13 -9 61 -12 108 l-7 84 39 32 c21 17
39 30 41 28 2 -2 8 -70 13 -152z m1700 76 c21 -21 27 -74 10 -100 -7 -12 -12
-12 -29 4 -12 11 -21 25 -21 33 0 7 -11 18 -25 23 -31 12 -32 23 -2 43 30 21
43 21 67 -3z m-846 -56 c13 -33 4 -42 -22 -26 -7 5 -10 16 -6 25 8 21 20 22
28 1z m749 -23 c19 -38 8 -55 -31 -46 -38 8 -56 28 -47 55 10 33 60 27 78 -9z
m-1993 -40 c7 -14 6 -43 -2 -98 -10 -65 -13 -73 -19 -48 -9 40 -11 150 -2 158
9 10 11 9 23 -12z m1285 -7 c26 -18 7 -17 -25 1 -40 23 -43 17 -8 -14 28 -25
31 -33 22 -48 -7 -10 -21 -17 -32 -16 -11 1 -28 -7 -37 -17 -31 -34 -77 -24
-101 22 -9 16 -14 31 -12 31 2 1 32 17 68 35 65 33 84 34 125 6z m800 -34 c17
-19 18 -19 34 2 17 20 21 20 71 8 63 -15 116 -59 130 -108 8 -29 6 -33 -20
-47 -37 -19 -60 -19 -60 0 0 57 -55 95 -136 95 -34 0 -47 -5 -63 -26 -28 -36
-26 -57 9 -98 23 -26 27 -35 16 -39 -21 -8 -60 26 -85 73 -25 49 -26 73 -4
110 29 49 78 63 108 30z m430 -40 c10 -11 14 -20 9 -20 -5 0 -15 9 -22 20 -7
11 -11 20 -9 20 2 0 12 -9 22 -20z m-1040 -32 c38 -28 58 -58 40 -58 -21 0
-67 35 -80 60 -20 38 -14 38 40 -2z m-430 -10 c5 -22 4 -33 -5 -36 -23 -8 -50
-41 -44 -56 10 -25 35 -27 66 -4 17 11 47 24 68 28 36 7 39 5 54 -27 29 -61
16 -123 -36 -169 -38 -34 -55 -36 -73 -7 -17 25 -17 26 14 50 19 15 31 33 31
49 0 31 -8 30 -50 -5 -45 -37 -72 -44 -103 -30 -28 13 -57 63 -57 98 0 40 28
89 66 115 50 34 61 33 69 -6z m1999 -9 c3 -17 6 -46 6 -65 0 -18 5 -36 10 -39
6 -4 8 -15 5 -24 -3 -10 1 -24 10 -31 22 -18 20 -70 -3 -70 -24 0 -58 -35 -43
-45 6 -3 11 -24 11 -45 0 -29 -5 -42 -20 -50 -17 -9 -22 -7 -30 15 -6 15 -10
30 -10 35 0 4 -13 21 -30 37 -27 25 -30 34 -30 89 0 34 5 76 12 95 11 33 84
129 98 129 4 0 10 -14 14 -31z m-1794 12 c0 -12 -51 -53 -58 -46 -6 6 38 55
50 55 4 0 8 -4 8 -9z m420 -54 c0 -9 11 -12 33 -9 18 2 48 0 67 -5 28 -7 36
-15 41 -41 8 -42 -4 -42 -90 2 -36 19 -79 37 -96 42 l-30 7 30 7 c44 11 45 11
45 -3z m-1531 -38 c29 -39 29 -41 14 -77 -22 -54 -27 -56 -77 -39 l-45 15 -12
-35 c-14 -43 0 -65 30 -46 16 10 20 9 25 -10 4 -16 -1 -28 -20 -44 -14 -13
-29 -23 -33 -23 -12 0 -20 33 -27 112 -6 60 -4 71 20 112 27 46 60 76 83 76 7
0 26 -18 42 -41z m1469 11 c46 -11 102 -31 125 -44 23 -13 85 -38 138 -55 131
-42 289 -116 289 -135 0 -40 -116 -60 -184 -32 -38 16 -65 58 -67 103 -2 24
-2 24 -6 6 -6 -32 -21 -29 -26 5 l-4 27 -7 -31 c-8 -31 -11 -32 -72 -39 -35
-4 -79 -3 -96 0 l-33 7 26 -28 c31 -36 79 -110 79 -124 0 -5 6 -10 14 -10 8 0
38 -21 68 -46 29 -25 82 -60 118 -76 36 -16 72 -35 80 -42 8 -7 35 -19 60 -26
25 -7 49 -17 54 -22 18 -15 -17 -58 -68 -83 -59 -29 -85 -33 -66 -10 7 9 10
18 7 21 -9 9 -27 -5 -27 -22 0 -8 -4 -14 -10 -14 -5 0 -10 4 -10 9 0 6 5 13
10 16 6 3 10 13 10 21 0 20 -19 8 -30 -20 -8 -20 -9 -20 -10 -1 -1 18 -2 18
-13 3 -12 -15 -19 -13 -87 18 -40 19 -77 31 -82 26 -12 -12 17 -35 99 -76 52
-27 79 -35 97 -30 30 7 32 2 10 -36 -15 -24 -23 -28 -68 -28 -28 0 -84 8 -124
19 -108 29 -116 22 -27 -23 44 -22 82 -42 83 -43 9 -9 -12 -47 -34 -61 -21
-15 -28 -15 -79 1 -60 19 -101 48 -90 64 3 6 2 11 -4 11 -15 0 -54 42 -68 72
-6 14 -21 29 -32 33 -12 3 -21 11 -21 17 0 6 -11 8 -27 3 l-27 -6 25 21 c24
21 24 21 2 17 -12 -3 -22 -2 -21 2 1 3 -4 17 -10 31 -6 14 -11 19 -11 13 -1
-23 -20 -14 -27 12 -6 24 -10 27 -44 29 -9 1 -15 10 -14 24 2 27 -57 82 -88
82 -15 0 -19 5 -15 20 6 24 -1 25 -32 4 -12 -9 24 53 82 140 69 103 114 182
132 231 32 87 27 85 153 55z m800 -77 c58 -43 86 -114 66 -168 -8 -19 -87 -75
-106 -75 -7 0 -38 37 -69 83 -61 90 -85 104 -116 64 -17 -24 -19 -24 -50 -9
-37 18 -39 22 -18 62 33 63 227 92 293 43z m-2207 -74 c-24 -38 -27 -81 -8
-97 6 -6 24 -12 39 -14 l27 -3 -20 -32 c-17 -27 -28 -33 -54 -33 -87 0 -101
126 -25 223 23 28 23 28 42 9 19 -19 19 -19 -1 -53z m2670 -16 c-12 -21 -28
-47 -36 -59 -14 -18 -13 -23 11 -55 24 -31 25 -40 21 -109 -3 -41 -12 -98 -21
-126 -13 -43 -21 -53 -44 -57 -15 -3 -29 -3 -31 -1 -2 2 5 36 17 76 38 130 38
157 3 205 -18 25 -31 55 -31 73 0 25 4 30 25 30 18 0 26 7 31 25 3 14 20 37
38 52 30 25 31 25 34 5 2 -11 -6 -38 -17 -59z m-1954 12 c63 -27 65 -31 38
-85 -19 -38 -30 -49 -56 -54 -39 -8 -47 -1 -31 24 20 32 14 40 -26 40 -41 0
-62 -14 -62 -42 0 -14 -8 -18 -35 -18 -42 0 -45 17 -12 74 39 68 110 92 184
61z m1823 -139 c0 -54 -3 -61 -35 -91 -36 -34 -101 -55 -171 -55 l-35 0 80 61
c54 40 91 77 113 113 38 62 48 57 48 -28z m-2390 49 c21 -11 27 -20 23 -35 -8
-30 16 -53 48 -46 22 4 31 0 44 -20 23 -36 8 -48 -61 -48 -51 0 -59 3 -85 32
-32 35 -35 53 -18 101 13 36 11 36 49 16z m709 -16 c20 -59 11 -109 -20 -109
-44 0 -58 80 -21 123 21 24 28 22 41 -14z m1211 -49 c0 -4 3 -15 6 -24 8 -22
-6 -20 -71 8 -52 24 -55 26 -44 49 l11 25 49 -25 c27 -13 49 -28 49 -33z
m-427 -20 c14 -22 24 -40 21 -40 -3 0 -24 18 -46 40 -35 33 -39 40 -22 40 13
0 30 -15 47 -40z m735 15 c1 -11 -4 -29 -12 -40 -13 -19 -15 -19 -33 -3 -17
16 -21 16 -41 2 -12 -8 -22 -24 -22 -34 0 -46 -104 -120 -169 -120 -35 0 -58
31 -56 78 2 42 7 46 50 38 32 -6 34 -9 24 -27 -15 -30 -4 -49 29 -49 36 0 49
15 57 60 10 58 13 64 57 93 52 33 111 34 116 2z m-1223 -195 c3 -5 1 -10 -4
-10 -6 0 -11 5 -11 10 0 6 2 10 4 10 3 0 8 -4 11 -10z m-70 -50 c10 -11 16
-20 13 -20 -3 0 -13 9 -23 20 -10 11 -16 20 -13 20 3 0 13 -9 23 -20z m1809
-25 c5 -29 4 -36 -3 -25 -6 8 -11 28 -11 44 0 39 6 31 14 -19z m-28 -55 c-9
-64 -21 -89 -57 -118 l-29 -24 0 27 c0 36 -15 24 -45 -36 -14 -27 -32 -49 -40
-49 -12 0 -10 13 10 68 30 79 57 118 79 114 9 -2 16 2 16 8 0 11 26 14 33 3 2
-5 3 -3 1 3 -3 12 23 54 33 54 3 0 3 -23 -1 -50z m-1711 20 c3 -5 1 -10 -4
-10 -6 0 -11 5 -11 10 0 6 2 10 4 10 3 0 8 -4 11 -10z m-1465 -30 c0 -6 18
-17 40 -26 32 -13 40 -21 40 -41 0 -25 0 -25 -45 11 -25 21 -49 34 -55 31 -12
-7 -12 -3 -4 19 7 18 24 22 24 6z m8 -68 c6 -18 -15 -14 -22 4 -4 10 -1 14 6
12 6 -2 14 -10 16 -16z m2992 -13 c0 -20 -21 -49 -35 -49 -8 0 -18 -8 -24 -17
-7 -14 -5 -23 11 -40 l20 -21 -24 -15 c-12 -9 -35 -19 -50 -22 -26 -7 -28 -5
-28 24 0 39 24 98 52 128 22 24 78 32 78 12z m178 -108 c-13 -32 -13 -32 -13
26 0 32 5 65 10 73 16 24 18 -62 3 -99z m-3001 91 c6 -4 15 -21 19 -37 7 -29
7 -29 -16 -14 -42 28 -46 78 -3 51z m766 -1 c37 -14 70 -162 61 -273 -4 -47
-11 -77 -17 -75 -6 2 -22 36 -35 75 -13 40 -27 72 -32 72 -4 0 -15 -27 -24
-60 -9 -33 -19 -60 -22 -60 -2 0 -22 11 -43 25 -39 24 -39 25 -29 62 20 77 92
243 104 243 7 0 24 -4 37 -9z m-877 -40 c-13 -20 -26 -11 -26 16 0 25 1 26 16
11 9 -9 13 -21 10 -27z m2775 19 c19 -11 19 -12 2 -40 -12 -22 -23 -28 -36
-24 -23 7 -48 -13 -40 -32 3 -9 16 -20 29 -25 13 -4 24 -13 24 -19 0 -28 -126
-42 -136 -15 -8 21 14 81 44 116 37 45 76 58 113 39z m-2526 -72 c20 -29 13
-33 -27 -12 -37 19 -48 31 -48 57 0 17 2 17 30 -3 16 -12 36 -31 45 -42z m240
34 c12 -9 27 -25 34 -34 24 -32 -10 -21 -54 17 -32 28 -36 34 -20 34 11 0 29
-7 40 -17z m-392 -23 c51 -27 55 -32 44 -50 -14 -22 -35 -25 -43 -5 -3 7 -14
11 -28 9 -16 -3 -25 2 -34 22 -14 30 -16 55 -4 55 5 0 34 -14 65 -31z m1572
21 c3 -5 1 -10 -4 -10 -6 0 -11 5 -11 10 0 6 2 10 4 10 3 0 8 -4 11 -10z m895
-20 c23 -23 27 -82 7 -98 -7 -6 -32 -15 -57 -21 -60 -13 -220 -34 -225 -29 -9
8 103 133 135 150 47 25 114 24 140 -2z m480 -4 c0 -16 -18 -31 -27 -22 -8 8
5 36 17 36 5 0 10 -6 10 -14z m-767 -15 c22 -8 24 -14 18 -43 -7 -32 -9 -33
-49 -30 -37 3 -46 -1 -90 -42 -61 -57 -132 -86 -132 -53 0 28 92 126 142 151
56 28 74 31 111 17z m-1944 -17 c16 -12 20 -19 12 -27 -7 -7 -17 -5 -31 8 -36
33 -22 47 19 19z m2679 -3 c2 -7 -5 -15 -16 -18 -11 -2 -22 -13 -25 -24 -3
-12 -14 -19 -30 -19 -27 0 -49 21 -29 28 6 2 26 14 44 27 35 25 49 26 56 6z
m-2793 -21 c22 -9 24 -12 13 -30 -24 -39 -80 -17 -64 25 6 18 15 19 51 5z
m1753 -15 c35 -29 47 -70 33 -108 -9 -23 -16 -27 -48 -26 -21 1 -55 -6 -75
-15 -21 -9 -49 -16 -62 -16 -14 0 -29 -7 -34 -16 -10 -19 -67 -46 -76 -37 -3
4 -6 26 -6 50 0 87 53 163 113 163 18 0 42 7 53 15 29 22 69 18 102 -10z
m-1624 -34 c3 -5 -2 -19 -12 -31 -13 -17 -24 -21 -40 -16 -24 8 -28 26 -10 44
14 14 54 16 62 3z m2493 -24 c-17 -27 -44 -32 -83 -16 l-29 12 55 17 c64 20
77 17 57 -13z m-1180 -54 c-2 -16 -4 -5 -4 22 0 28 2 40 4 28 2 -13 2 -35 0
-50z m-1196 41 c27 -9 49 -19 49 -23 0 -12 -57 -41 -81 -41 -30 0 -59 28 -59
57 0 28 20 30 91 7z m2239 -4 c0 -23 -41 -50 -75 -50 -41 0 -102 27 -89 40 5
5 36 11 69 13 33 2 68 4 78 5 9 1 17 -2 17 -8z m-210 -25 c0 -45 -130 -67
-184 -31 -15 10 -26 20 -23 23 6 5 121 20 175 22 22 1 32 -4 32 -14z m-273
-35 c2 -8 -10 -24 -25 -35 -30 -22 -85 -24 -132 -5 -31 13 -40 29 -17 31 6 0
39 6 72 14 72 16 99 15 102 -5z m-267 -51 c0 -15 -99 -108 -127 -119 -27 -11
-50 -4 -80 23 -41 36 -22 56 52 57 17 0 52 11 79 25 53 27 76 31 76 14z
m-1197 -32 l38 -23 -41 -32 -40 -33 -35 27 c-19 14 -35 28 -35 31 0 9 53 53
64 53 6 0 28 -10 49 -23z"/>
<path d="M5170 4278 c1 -43 35 -118 54 -118 32 0 29 46 -5 99 -19 28 -37 51
-41 51 -5 0 -8 -15 -8 -32z"/>
<path d="M4275 4267 c-9 -22 -2 -62 10 -60 6 1 11 14 13 29 4 32 -14 56 -23
31z"/>
<path d="M4399 4209 c-1 -2 -3 -21 -4 -41 -3 -27 0 -38 10 -38 10 0 13 11 12
34 -2 29 -14 60 -18 45z"/>
<path d="M4280 4179 c0 -5 5 -7 10 -4 6 3 10 8 10 11 0 2 -4 4 -10 4 -5 0 -10
-5 -10 -11z"/>
<path d="M2815 3839 c-2 -8 -6 -32 -7 -54 -3 -38 -2 -40 25 -38 36 3 57 20 57
47 0 30 -11 43 -43 51 -18 5 -28 3 -32 -6z"/>
<path d="M2786 3643 c-21 -107 -22 -103 17 -103 49 0 87 33 87 75 0 39 -20 55
-69 55 -24 0 -30 -5 -35 -27z"/>
<path d="M3347 3743 c-13 -12 -7 -33 8 -33 8 0 15 9 15 20 0 20 -11 26 -23 13z"/>
<path d="M3525 3720 c-3 -5 -2 -10 4 -10 5 0 13 5 16 10 3 6 2 10 -4 10 -5 0
-13 -4 -16 -10z"/>
<path d="M3570 3720 c0 -5 5 -10 10 -10 6 0 10 5 10 10 0 6 -4 10 -10 10 -5 0
-10 -4 -10 -10z"/>
<path d="M4441 2997 c-13 -6 -32 -28 -42 -47 -49 -91 9 -160 75 -91 36 37 47
109 21 134 -20 20 -23 20 -54 4z"/>
<path d="M2944 2985 c-14 -14 -22 -30 -19 -35 7 -11 108 -14 118 -4 7 8 -11
46 -27 56 -21 14 -47 8 -72 -17z"/>
<path d="M5070 2750 c-19 -12 -8 -22 48 -44 36 -14 43 -14 48 -2 3 8 1 24 -6
35 -12 23 -62 29 -90 11z"/>
<path d="M1459 2563 c-14 -35 -4 -122 15 -142 14 -13 18 -13 36 4 52 47 42
165 -15 165 -19 0 -28 -7 -36 -27z"/>
<path d="M5316 2579 c-44 -51 -32 -119 21 -119 27 0 52 34 60 84 11 67 -37 88
-81 35z"/>
<path d="M4186 2483 c-2 -10 -8 -42 -11 -70 -8 -59 5 -69 43 -35 32 27 38 76
13 101 -26 26 -38 26 -45 4z"/>
<path d="M4145 2268 c-11 -35 -25 -95 -25 -110 0 -23 37 -24 67 -3 30 21 51
89 33 110 -15 18 -69 20 -75 3z"/>
<path d="M3008 2264 c-57 -30 -76 -114 -35 -152 27 -26 47 -27 87 -7 34 17 44
43 41 105 -3 66 -36 86 -93 54z"/>
<path d="M4820 1184 c-9 -35 -14 -64 -12 -64 2 0 12 5 23 10 14 8 19 21 18 48
-1 71 -13 74 -29 6z"/>
<path d="M1896 1201 c-17 -19 -17 -20 3 -31 27 -14 41 -5 41 26 0 29 -20 31
-44 5z"/>
<path d="M3762 1070 c0 -19 2 -27 5 -17 2 9 2 25 0 35 -3 9 -5 1 -5 -18z"/>
<path d="M3256 745 c38 -30 74 -55 79 -55 11 1 -21 29 -89 78 -71 51 -65 37
10 -23z"/>
<path d="M3390 641 c0 -13 22 -29 53 -36 39 -10 34 8 -8 28 -41 19 -45 20 -45
8z"/>
<path d="M3518 413 c7 -3 16 -2 19 1 4 3 -2 6 -13 5 -11 0 -14 -3 -6 -6z"/>
<path d="M4120 1113 c0 -16 72 -103 85 -103 6 0 17 12 24 26 10 22 9 31 -4 50
-8 13 -22 24 -29 24 -7 0 -28 3 -45 6 -17 4 -31 2 -31 -3z"/>
<path d="M4218 350 l-33 -29 46 -1 c54 0 80 20 59 45 -18 22 -36 19 -72 -15z"/>
<path d="M3611 274 c-32 -41 -27 -47 37 -39 69 8 77 14 56 43 -22 31 -67 29
-93 -4z"/>
<path d="M3787 5190 c-8 -32 -5 -34 38 -15 21 8 35 18 31 22 -3 4 -12 1 -18
-5 -17 -17 -36 -15 -40 6 -3 13 -5 11 -11 -8z"/>
</g>
</svg>
